<svg xmlns="http://www.w3.org/2000/svg" xmlns:xlink="http://www.w3.org/1999/xlink" viewBox="0 0 296.3 33.3" id="AppLogo">
<style>
.st0 {
    fill: rgb(255,102,0);
}
</style>

<path class="st0" d="M296.3,33.3l-3.1-32h-6.1l-3.9,12.3l-3.9-12.3h0l0,0h-6.1l-3.1,32l6.1,0l1.6-17l2.2,7.1c0,0,0.9,2,3.1,2  c2.2,0,3.1-2,3.1-2l2.2-7.1l1.6,17L296.3,33.3z"></path>
<path class="st0" d="M265.2,1.3l-1.6,17l-2.2-7.1v0c0,0-0.9-2-3.1-2c-2.2,0-3.1,2-3.1,2v0l-2.2,7.1l-1.6-17l-6.1,0l3.1,32h6.1l0,0h0  l3.9-12.3l3.9,12.3v0h6.1l3.1-32L265.2,1.3z"></path>
<path class="st0" d="M241.5,23.4l-10.4,0l0-6.1h10.4V23.4z"></path>
<g>
	<path class="st0" d="M218,27.2c-2.9,0-5.3-2.4-5.3-5.3s2.4-5.3,5.3-5.3c2,0,7.6,0,7.6,0v-6.1c0,0-5.7,0-7.6,0   c-6.3,0-11.4,5.1-11.4,11.4s5.1,11.4,11.4,11.4c1.9,0,7.6,0,7.6,0v-6.1C225.7,27.2,220.1,27.2,218,27.2z"></path>
	<path class="st0" d="M204.6,10.5v22.8l-6.1,0V10.5H204.6z M204.6,1.3v6.1l-6.1,0V1.3H204.6z"></path>
	<path class="st0" d="M195.7,1.3v32l-6.1,0v-32H195.7z"></path>
	<path class="st0" d="M176.2,10.4c-1.9,0-3.7,0.5-5.3,1.3V1.3l-6.1,0v32h6.1V32c1.6,0.8,3.4,1.3,5.3,1.3c6.3,0,11.4-5.1,11.4-11.4   C187.7,15.5,182.5,10.4,176.2,10.4z M176.2,27.2c-2.9,0-5.3-2.4-5.3-5.3c0-2.9,2.4-5.3,5.3-5.3c2.9,0,5.3,2.4,5.3,5.3   C181.5,24.8,179.2,27.2,176.2,27.2z"></path>
	<path class="st0" d="M156.2,10.5h6.2l0,12.9c0,5.5-4.3,9.9-9.6,9.9c-5.4,0-9.8-4.4-9.9-9.9l0-12.9h6.1l0,12.8   c0,1.9,1.3,3.7,3.6,3.7s3.6-1.8,3.6-3.9L156.2,10.5z"></path>
	<path class="st0" d="M129.3,1.3c-1.9,0-3.7,0.5-5.3,1.3V1.3h-6.1v32l6.1,0V22.8c1.6,0.8,3.4,1.3,5.3,1.3c6.3,0,11.4-5.1,11.4-11.4   C140.8,6.4,135.6,1.3,129.3,1.3z M129.3,18c-2.9,0-5.3-2.4-5.3-5.3c0-2.9,2.4-5.3,5.3-5.3c2.9,0,5.3,2.4,5.3,5.3   C134.6,15.7,132.3,18,129.3,18z"></path>
	<path class="st0" d="M109,16.5h4.7l0-6.1H109V6.8l-6.1,0v3.7h-3.2v6.1h3.2v7.1c0.1,5.1,4.1,9.4,9.1,9.7c0.4,0,1.2,0,1.7,0v-6.1   c-0.4,0-1.2-0.1-1.6-0.1c-1.8-0.4-3.1-1.9-3.1-3.8L109,16.5z"></path>
	<path class="st0" d="M95.8,10.5c-1.1,0.1-2.1,0.3-3,0.7v-0.7h-6.1l0,22.9h6.1V20.5c0-1.9,1.3-3.4,3.1-3.8c0.4-0.1,0.8-0.1,1.1-0.2   v-6.1C96.6,10.4,96.2,10.4,95.8,10.5z"></path>
	<path class="st0" d="M84,10.4h-6.1v1.3c-1.6-0.8-3.4-1.3-5.3-1.3c-6.3,0-11.4,5.1-11.4,11.4s5.1,11.4,11.4,11.4   c1.9,0,3.7-0.5,5.3-1.3v1.3H84V10.4z M72.5,27.2c-2.9,0-5.3-2.4-5.3-5.3s2.4-5.3,5.3-5.3c2.9,0,5.3,2.4,5.3,5.3   S75.5,27.2,72.5,27.2z"></path>
	<path class="st0" d="M59,33.3h-6.1l0-12.5c0-2.3-1.6-4.1-3.7-4.1c-2,0-3.6,1.8-3.6,4.1l0,12.5l-6.1,0l0-12.7c0.1-2.5-2.1-4-3.7-3.9   c-2,0-3.6,1.8-3.6,4l0,12.6h-6.1l0-13.2c0.1-5.3,4.8-9.8,10.1-9.6c2.1,0.1,4.2,0.9,6.4,2.6c1.8-1.3,2.6-1.7,4-2.1   c6-1.7,12,2.4,12.4,8.8L59,33.3z"></path>
	<path class="st0" d="M15.9,13.5c-2-0.5-4.1-1.1-6.1-1.8c-1.3-0.5-2.6-1.9-2.3-3.5c0.3-1.6,2-2.7,4.3-2.6c2.3,0.1,3.4,0.9,4.4,2.2   c0.2,0.3,0.3,0.5,0.3,0.5h6.5c0,0,0-0.6,0-0.9c0-0.3,0-0.4-0.3-1.2l0,0C21.1,2.3,16.9,0,12,0C7.1,0,1.9,3.2,1,7.5   c-0.8,4.1,1.6,8.3,6.1,9.9c1.2,0.4,2.5,0.8,3.8,1.1c0.7,0.2,1.4,0.4,2.1,0.6c3.2,0.8,5,2.4,4,5.4c-0.6,2-2.9,2.9-5.2,2.8   c-2.5-0.1-4.5-1.4-5.2-3.5C6.4,23.2,6.5,22,6.5,22H0c0,0,0,0.9,0,1.2c0,2.9,1.1,5.6,3.5,7.4c2.2,1.8,5.2,2.7,8.5,2.7   c0.6,0,1.3,0,1.9-0.1c5.4-0.6,9.6-4.5,10.1-9.3C24.4,19.8,22,15.1,15.9,13.5z"></path>
</g>
</svg>