<svg xmlns="http://www.w3.org/2000/svg" viewBox="0 0 63.88 8.55">
  <style>
    .cls-1 {
      fill: white;
      stroke-width: 0;
    }
  </style>
  <g>
    <path class="cls-1" d="M.08,7.45A.15.15,0,0,1,0,7.34a.26.26,0,0,1,.14-.2A.39.39,0,0,1,.42,7a.18.18,0,0,1,.15.06,3.07,3.07,0,0,0,1,.59,3.3,3.3,0,0,0,1.27.24,2.67,2.67,0,0,0,1.52-.41,1.31,1.31,0,0,0,.61-1.14,2.23,2.23,0,0,0-.07-.55,1.42,1.42,0,0,0-.19-.39,1.35,1.35,0,0,0-.35-.31,4.16,4.16,0,0,0-.47-.24l-.63-.23L1.83,4.2a6.56,6.56,0,0,1-.72-.3,2.87,2.87,0,0,1-.57-.39A1.51,1.51,0,0,1,.13,3,2,2,0,0,1,0,2.2,1.76,1.76,0,0,1,.79.69a3.16,3.16,0,0,1,2-.58,3.83,3.83,0,0,1,1.5.3,3.12,3.12,0,0,1,1.06.64.28.28,0,0,1,.1.2.26.26,0,0,1-.09.19.31.31,0,0,1-.21.07.29.29,0,0,1-.22-.09A3.15,3.15,0,0,0,4.05,1,3,3,0,0,0,2.8.7a2.54,2.54,0,0,0-1.54.42A1.31,1.31,0,0,0,.7,2.18a1.11,1.11,0,0,0,.38.89,3.53,3.53,0,0,0,1.22.6l1.4.46c.24.08.44.16.62.24a2.71,2.71,0,0,1,.52.29,2,2,0,0,1,.42.39,1.75,1.75,0,0,1,.26.51,2,2,0,0,1,.1.66,2,2,0,0,1-.79,1.71,3.52,3.52,0,0,1-2.15.58A3.48,3.48,0,0,1,.08,7.45Z"/>
    <path class="cls-1" d="M7.5,8.31a.28.28,0,0,1-.1-.24V2.91a.25.25,0,0,1,.11-.21.37.37,0,0,1,.47,0,.25.25,0,0,1,.11.22v.77A1.68,1.68,0,0,1,8.8,2.8,2.18,2.18,0,0,1,10,2.45,1.75,1.75,0,0,1,11.93,3.9a2,2,0,0,1,2.19-1.45,2.31,2.31,0,0,1,.75.12,2,2,0,0,1,.65.38,1.64,1.64,0,0,1,.46.69,2.75,2.75,0,0,1,.17,1v3.4a.28.28,0,0,1-.1.24.4.4,0,0,1-.24.07.35.35,0,0,1-.23-.07.28.28,0,0,1-.1-.24V4.59a1.82,1.82,0,0,0-.37-1.24A1.35,1.35,0,0,0,14,2.92a2.3,2.3,0,0,0-.71.1,1.72,1.72,0,0,0-.6.31,1.38,1.38,0,0,0-.44.6,2.36,2.36,0,0,0-.16.92V8.07A.27.27,0,0,1,12,8.3a.35.35,0,0,1-.24.08.31.31,0,0,1-.23-.08.26.26,0,0,1-.1-.23V4.93c0-1.34-.47-2-1.43-2a1.88,1.88,0,0,0-1.4.52A2.07,2.07,0,0,0,8.09,5v3.1A.29.29,0,0,1,8,8.31a.39.39,0,0,1-.25.07A.35.35,0,0,1,7.5,8.31Z"/>
    <path class="cls-1" d="M18,8.09a1.48,1.48,0,0,1-.56-1.25,1.87,1.87,0,0,1,.12-.72A1.21,1.21,0,0,1,18,5.63a2,2,0,0,1,.76-.31,8,8,0,0,1,1.15-.16c.45,0,1,0,1.66,0V4.28a1.21,1.21,0,0,0-.41-1A1.75,1.75,0,0,0,20,2.92,3.4,3.4,0,0,0,19,3a5.1,5.1,0,0,0-.9.36.21.21,0,0,1-.12.05.23.23,0,0,1-.18-.09.25.25,0,0,1-.08-.18A.17.17,0,0,1,17.83,3,3.8,3.8,0,0,1,20,2.45a2.47,2.47,0,0,1,1.61.47,1.76,1.76,0,0,1,.57,1.43V8.12a.23.23,0,0,1-.12.2.38.38,0,0,1-.26.08.28.28,0,0,1-.21-.07.21.21,0,0,1-.09-.19v-1a2.08,2.08,0,0,1-2,1.37A2.42,2.42,0,0,1,18,8.09Zm3-.69a2.43,2.43,0,0,0,.57-1.66V5.53a14.56,14.56,0,0,0-2.16.11,2,2,0,0,0-1,.37,1,1,0,0,0-.28.79q0,1.26,1.53,1.26A1.73,1.73,0,0,0,21,7.4Z"/>
    <path class="cls-1" d="M24.19,8.31a.29.29,0,0,1-.1-.23V3a.29.29,0,0,1,.1-.23.31.31,0,0,1,.23-.08.33.33,0,0,1,.35.34v.68a1.62,1.62,0,0,1,1.69-1.27l.1.08.13.11a.22.22,0,0,1,0,.13.28.28,0,0,1-.08.2A.37.37,0,0,1,26.4,3a1.6,1.6,0,0,0-.67.13,1.33,1.33,0,0,0-.48.31,2.42,2.42,0,0,0-.29.42,2.32,2.32,0,0,0-.15.41,1.35,1.35,0,0,0,0,.33v3.5a.29.29,0,0,1-.1.22.36.36,0,0,1-.25.08A.35.35,0,0,1,24.19,8.31Z"/>
    <path class="cls-1" d="M29.26,8.44a1.09,1.09,0,0,1-.4-.27,1.28,1.28,0,0,1-.29-.56,3.37,3.37,0,0,1-.1-.91V3.12h-.83a.3.3,0,0,1-.21-.05.18.18,0,0,1-.07-.16q0-.24.3-.24h.81L28.55.88c0-.06,0-.12.12-.19a.41.41,0,0,1,.18-.1.29.29,0,0,1,.21.09.28.28,0,0,1,.09.22V2.67h1.17c.18,0,.28.08.28.24a.18.18,0,0,1-.07.16.3.3,0,0,1-.21.05H29.15V6.74a2.8,2.8,0,0,0,.06.63.79.79,0,0,0,.17.38.66.66,0,0,0,.25.17A1.18,1.18,0,0,0,30,8h.42a.32.32,0,0,1,.23.08.25.25,0,0,1-.14.44,6.62,6.62,0,0,1-.77,0A1.31,1.31,0,0,1,29.26,8.44Z"/>
    <path class="cls-1" d="M34.85,7.39a4.34,4.34,0,0,1-1-3.08,4.31,4.31,0,0,1,1-3.07,4,4,0,0,1,5.54,0,4.37,4.37,0,0,1,1,3.07,4.4,4.4,0,0,1-1,3.08,4,4,0,0,1-5.54,0Zm5-.42a3.94,3.94,0,0,0,.83-2.66,3.92,3.92,0,0,0-.83-2.66A2.78,2.78,0,0,0,37.62.7a2.81,2.81,0,0,0-2.21,1,4,4,0,0,0-.83,2.66A3.94,3.94,0,0,0,35.41,7a3,3,0,0,0,4.42,0Z"/>
    <path class="cls-1" d="M43.56,8.3a.34.34,0,0,1-.1-.25V3.12h-1c-.17,0-.25-.07-.25-.22s.09-.22.27-.23h.93V1.85a3.63,3.63,0,0,1,.08-.79,1.54,1.54,0,0,1,.19-.54A1.05,1.05,0,0,1,44,.2,1.29,1.29,0,0,1,44.43,0a2,2,0,0,1,.45,0h.67a.25.25,0,0,1,.19.07.25.25,0,0,1,.06.17.25.25,0,0,1-.06.17.26.26,0,0,1-.19.08h-.5a1,1,0,0,0-.57.13.82.82,0,0,0-.26.52,5.8,5.8,0,0,0-.08,1.19v.34h1.18a.27.27,0,0,1,.19.05.3.3,0,0,1,0,.18.25.25,0,0,1,0,.17s-.09.05-.19.05H44.14V8.05a.3.3,0,0,1-.11.24.36.36,0,0,1-.24.09A.34.34,0,0,1,43.56,8.3Z"/>
    <path class="cls-1" d="M46.15,8.3a.3.3,0,0,1-.1-.25V3.12h-1c-.16,0-.24-.07-.24-.22s.09-.22.26-.23h.94V1.85a3.68,3.68,0,0,1,.07-.79,1.75,1.75,0,0,1,.2-.54A1,1,0,0,1,46.63.2,1.14,1.14,0,0,1,47,0a2,2,0,0,1,.45,0h.68a.21.21,0,0,1,.18.07.22.22,0,0,1,.07.17.22.22,0,0,1-.07.17.22.22,0,0,1-.18.08h-.5a1,1,0,0,0-.57.13.78.78,0,0,0-.27.52,6.63,6.63,0,0,0-.08,1.19v.34h1.19a.29.29,0,0,1,.19.05.3.3,0,0,1,0,.18.25.25,0,0,1,0,.17s-.1.05-.19.05H46.72V8.05a.3.3,0,0,1-.1.24.36.36,0,0,1-.24.09A.32.32,0,0,1,46.15,8.3Z"/>
    <path class="cls-1" d="M48.72,8.3A.37.37,0,0,1,48.63,8V3a.32.32,0,0,1,.1-.25A.36.36,0,0,1,49,2.61.32.32,0,0,1,49.3,3V8a.33.33,0,0,1-.1.26.38.38,0,0,1-.25.09A.32.32,0,0,1,48.72,8.3Z"/>
    <path class="cls-1" d="M51.56,7.71a3.4,3.4,0,0,1-.69-2.21,3.13,3.13,0,0,1,.78-2.2,2.69,2.69,0,0,1,2.09-.85,2.73,2.73,0,0,1,.89.15,1.91,1.91,0,0,1,.7.41.39.39,0,0,1,.12.26.18.18,0,0,1-.06.14.2.2,0,0,1-.14,0,.3.3,0,0,1-.22-.1,2.13,2.13,0,0,0-1.33-.44,2,2,0,0,0-1.53.69,2.76,2.76,0,0,0-.62,1.94,3.45,3.45,0,0,0,.05.64,3.1,3.1,0,0,0,.19.67,2.23,2.23,0,0,0,.36.6,1.48,1.48,0,0,0,.57.43,1.85,1.85,0,0,0,.8.17A2.66,2.66,0,0,0,55,7.61a.24.24,0,0,1,.14-.05.23.23,0,0,1,.17.07.18.18,0,0,1,.07.15.33.33,0,0,1-.18.26,2.82,2.82,0,0,1-1.77.51A2.33,2.33,0,0,1,51.56,7.71Z"/>
    <path class="cls-1" d="M58.21,8.32a2.66,2.66,0,0,1-1.47-1.54,3.15,3.15,0,0,1-.23-1.24A3.72,3.72,0,0,1,56.83,4a2.76,2.76,0,0,1,1-1.12,2.56,2.56,0,0,1,1.49-.43c1.65,0,2.51,1,2.59,2.88a.18.18,0,0,1-.1.16.41.41,0,0,1-.27.07H57.2v.09a2.73,2.73,0,0,0,.17,1,2.07,2.07,0,0,0,1.14,1.18,2.32,2.32,0,0,0,.78.17,2.71,2.71,0,0,0,1.13-.21,3.92,3.92,0,0,0,.89-.59.34.34,0,0,1,.23-.1.21.21,0,0,1,.21.21.37.37,0,0,1-.12.26,3.31,3.31,0,0,1-.36.31,3.69,3.69,0,0,1-.46.3,2.84,2.84,0,0,1-.68.24,4,4,0,0,1-.87.09A2.7,2.7,0,0,1,58.21,8.32Zm3.06-3.2a2.78,2.78,0,0,0-.53-1.6,1.64,1.64,0,0,0-1.38-.6,2.1,2.1,0,0,0-.88.18,1.73,1.73,0,0,0-.66.49,2.43,2.43,0,0,0-.41.7,2.52,2.52,0,0,0-.19.83Z"/>
  </g>
</svg>
