<svg width="5.714rem" height="5.714rem" viewBox="0 0 45.4 45.4" version="1.1" xmlns="http://www.w3.org/2000/svg" xmlns:xlink="http://www.w3.org/1999/xlink">
  <defs>
    <style>
      .trademark {
        fill: rgb(235, 235, 235);
      }
    </style>
  </defs>
    <path class="trademark"
    d="M13.8,14.6l-3.4,25.8C4.6,40.2,0,35.5,0,29.7V19.4c0,0,7.2-2.9,10.4-3.8C11.6,15.3,12.7,14.9,13.8,14.6z
M29.7,0H10.7C5,0,0.3,4.5,0,10.2l18.8-2.8c12.6-1.6,16.3,2.9,16.3,8.6c0,6.5-9.4,13.2-20.5,17.1l-1,7.4h16.1
c5.9,0,10.7-4.8,10.7-10.7V10.7C40.4,4.8,35.6,0,29.7,0z M33.1,14.2c-0.6-3-5.1-3.6-15.9-0.6l-2,15.1C24.5,26,34.4,21.3,33.1,14.2z"></path>

</svg>